<?xml version="1.0" standalone="no"?>
<!DOCTYPE svg PUBLIC "-//W3C//DTD SVG 20010904//EN"
 "http://www.w3.org/TR/2001/REC-SVG-20010904/DTD/svg10.dtd">
<svg version="1.0" xmlns="http://www.w3.org/2000/svg"
 width="465.000000pt" height="465.000000pt" viewBox="0 0 465.000000 465.000000"
 preserveAspectRatio="xMidYMid meet">
<metadata>
Created by potrace 1.11, written by Peter Selinger 2001-2013
</metadata>
<g transform="translate(0.000000,465.000000) scale(0.100000,-0.100000)"
fill="#000000" stroke="none">
<path d="M1737 4290 c-130 -33 -200 -109 -245 -265 -24 -85 -30 -116 -37 -220
-11 -148 -15 -182 -29 -251 -8 -38 -17 -105 -21 -149 -8 -101 -32 -256 -50
-316 -41 -143 -218 -396 -401 -574 -200 -193 -218 -207 -424 -314 -31 -16 -80
-32 -110 -36 -30 -4 -57 -8 -60 -10 -3 -2 -26 -6 -50 -10 -55 -8 -252 -56
-248 -61 2 -2 23 -4 46 -5 68 -4 54 -18 -63 -63 -40 -15 -40 -15 -10 -17 33
-2 37 -2 150 -18 44 -6 103 -13 130 -16 28 -3 61 -8 74 -11 26 -6 73 7 146 40
58 27 173 67 261 91 l60 17 60 -27 c91 -42 189 -73 252 -82 31 -4 251 -8 487
-8 507 0 513 1 795 110 82 32 140 58 327 147 24 11 41 23 38 27 -2 4 -28 8
-56 10 -29 1 -55 4 -58 6 -3 1 -37 6 -76 9 -78 8 -147 15 -186 22 -17 2 -63
-14 -135 -50 -60 -29 -175 -79 -256 -110 -331 -127 -484 -133 -717 -26 -96 44
-173 65 -256 72 -29 3 -29 4 23 34 99 57 309 261 464 449 36 44 165 255 193
317 22 49 57 215 69 333 3 28 8 77 12 110 3 33 12 91 20 129 8 39 17 104 19
145 10 150 16 197 37 274 42 159 125 229 268 227 41 -1 136 8 210 20 74 12
160 25 190 30 30 4 46 8 35 9 -11 2 -29 5 -40 7 -41 10 -801 13 -838 4z"/>
<path d="M3648 3314 c-2 -1 -109 -5 -238 -8 -354 -9 -728 -28 -797 -41 -10 -2
-33 -4 -52 -4 -31 -1 -37 -13 -8 -17 7 -1 38 -5 71 -8 32 -4 70 -10 85 -12
218 -34 187 -34 451 -9 19 2 106 6 192 10 132 6 165 4 207 -10 83 -27 156
-127 167 -228 10 -96 10 -121 2 -175 -12 -82 -37 -150 -71 -202 -33 -49 -95
-110 -113 -110 -7 0 -55 -31 -108 -70 -53 -38 -98 -70 -99 -70 -2 0 -3 140 -2
311 0 267 -2 312 -15 318 -12 5 -322 7 -392 2 -17 -1 -18 -24 -18 -341 l0
-340 -34 -102 c-19 -57 -37 -129 -41 -161 -3 -32 -8 -64 -10 -70 -2 -7 -7 -30
-10 -52 -3 -22 -28 -96 -56 -165 -28 -69 -62 -155 -76 -193 -13 -37 -37 -89
-53 -115 -16 -26 -48 -94 -70 -151 -35 -89 -86 -182 -110 -201 -3 -3 -12 -21
-20 -40 -14 -37 -74 -127 -97 -146 -7 -6 -50 -12 -96 -13 -47 -1 -108 -10
-142 -20 -64 -20 -122 -28 -245 -36 -64 -3 -110 -11 -260 -41 -69 -14 -236
-65 -273 -83 -23 -12 -69 -46 -102 -77 -84 -78 -213 -186 -260 -217 l-40 -27
40 -2 c22 -1 47 -2 55 -3 8 -1 47 -5 85 -9 39 -4 86 -9 105 -12 131 -18 133
-18 198 30 52 38 216 177 232 196 22 27 110 73 180 94 171 52 318 79 494 91
48 4 129 17 180 30 86 22 110 24 436 25 381 2 400 2 515 20 278 41 452 112
819 333 121 73 243 154 272 180 103 94 128 175 121 387 -6 161 -21 203 -94
270 -93 85 -161 112 -322 125 -36 3 -203 6 -371 7 -168 0 -309 3 -313 5 -4 3
32 30 81 61 48 32 119 80 158 108 38 28 101 72 139 96 130 83 181 161 220 333
17 72 12 241 -7 300 -58 174 -167 244 -390 250 -53 2 -98 1 -100 -1z m207
-1225 c6 -3 30 -7 54 -8 24 -2 55 -7 68 -12 13 -5 23 -6 23 -3 0 15 125 -65
159 -101 51 -55 61 -95 63 -247 2 -209 -34 -269 -237 -390 -60 -37 -150 -91
-200 -122 -99 -60 -229 -126 -372 -187 -78 -33 -222 -72 -348 -93 -78 -13
-267 -24 -275 -16 -5 6 47 101 100 180 38 58 55 91 89 180 12 30 42 95 67 143
25 49 61 130 79 180 18 51 45 119 60 152 15 33 29 67 31 75 2 8 10 40 18 70 8
30 17 75 20 100 3 25 9 59 12 77 l6 31 286 -2 c158 -1 292 -4 297 -7z"/>
</g>
</svg>
